<svg width="48" height="52" viewBox="0 0 48 52" fill="none" xmlns="http://www.w3.org/2000/svg">
<path d="M12 45.8611C10.3333 45.8611 8.91667 45.3345 7.75 44.2813C6.58333 43.228 6 41.9491 6 40.4444C6 38.9398 6.58333 37.6609 7.75 36.6076C8.91667 35.5544 10.3333 35.0278 12 35.0278C12.4667 35.0278 12.9 35.0729 13.3 35.1632C13.7 35.2535 14.0833 35.3738 14.45 35.5243L17.3 32.3194C16.3667 31.3866 15.7167 30.3333 15.35 29.1597C14.9833 27.9861 14.9 26.8125 15.1 25.6389L11.05 24.4201C10.4833 25.1725 9.76667 25.7743 8.9 26.2257C8.03333 26.6771 7.06667 26.9028 6 26.9028C4.33333 26.9028 2.91667 26.3762 1.75 25.3229C0.583333 24.2697 0 22.9907 0 21.4861C0 19.9815 0.583333 18.7025 1.75 17.6493C2.91667 16.5961 4.33333 16.0694 6 16.0694C7.66667 16.0694 9.08333 16.5961 10.25 17.6493C11.4167 18.7025 12 19.9815 12 21.4861C12 21.5463 12 21.6065 12 21.6667C12 21.7269 12 21.787 12 21.8472L16.05 23.1111C16.7167 22.0278 17.6083 21.11 18.725 20.3576C19.8417 19.6053 21.1 19.1238 22.5 18.9132V14.9861C21.2 14.6551 20.125 14.0156 19.275 13.0677C18.425 12.1198 18 11.0139 18 9.75C18 8.24537 18.5833 6.96644 19.75 5.9132C20.9167 4.85996 22.3333 4.33334 24 4.33334C25.6667 4.33334 27.0833 4.85996 28.25 5.9132C29.4167 6.96644 30 8.24537 30 9.75C30 11.0139 29.5667 12.1198 28.7 13.0677C27.8333 14.0156 26.7667 14.6551 25.5 14.9861V18.9132C26.9 19.1238 28.1583 19.6053 29.275 20.3576C30.3917 21.11 31.2833 22.0278 31.95 23.1111L36 21.8472C36 21.787 36 21.7269 36 21.6667C36 21.6065 36 21.5463 36 21.4861C36 19.9815 36.5833 18.7025 37.75 17.6493C38.9167 16.5961 40.3333 16.0694 42 16.0694C43.6667 16.0694 45.0833 16.5961 46.25 17.6493C47.4167 18.7025 48 19.9815 48 21.4861C48 22.9907 47.4167 24.2697 46.25 25.3229C45.0833 26.3762 43.6667 26.9028 42 26.9028C40.9333 26.9028 39.9583 26.6771 39.075 26.2257C38.1917 25.7743 37.4833 25.1725 36.95 24.4201L32.9 25.6389C33.1 26.8125 33.0167 27.9786 32.65 29.1372C32.2833 30.2957 31.6333 31.3565 30.7 32.3194L33.55 35.4792C33.9167 35.3287 34.3 35.2159 34.7 35.1406C35.1 35.0654 35.5333 35.0278 36 35.0278C37.6667 35.0278 39.0833 35.5544 40.25 36.6076C41.4167 37.6609 42 38.9398 42 40.4444C42 41.9491 41.4167 43.228 40.25 44.2813C39.0833 45.3345 37.6667 45.8611 36 45.8611C34.3333 45.8611 32.9167 45.3345 31.75 44.2813C30.5833 43.228 30 41.9491 30 40.4444C30 39.8426 30.1083 39.2633 30.325 38.7066C30.5417 38.1499 30.8333 37.6458 31.2 37.1944L28.35 33.9896C26.9833 34.6817 25.525 35.0278 23.975 35.0278C22.425 35.0278 20.9667 34.6817 19.6 33.9896L16.8 37.1944C17.1667 37.6458 17.4583 38.1499 17.675 38.7066C17.8917 39.2633 18 39.8426 18 40.4444C18 41.9491 17.4167 43.228 16.25 44.2813C15.0833 45.3345 13.6667 45.8611 12 45.8611ZM6 23.2917C6.56667 23.2917 7.04167 23.1186 7.425 22.7726C7.80833 22.4265 8 21.9977 8 21.4861C8 20.9745 7.80833 20.5457 7.425 20.1997C7.04167 19.8536 6.56667 19.6806 6 19.6806C5.43333 19.6806 4.95833 19.8536 4.575 20.1997C4.19167 20.5457 4 20.9745 4 21.4861C4 21.9977 4.19167 22.4265 4.575 22.7726C4.95833 23.1186 5.43333 23.2917 6 23.2917ZM12 42.25C12.5667 42.25 13.0417 42.077 13.425 41.7309C13.8083 41.3848 14 40.956 14 40.4444C14 39.9329 13.8083 39.5041 13.425 39.158C13.0417 38.8119 12.5667 38.6389 12 38.6389C11.4333 38.6389 10.9583 38.8119 10.575 39.158C10.1917 39.5041 10 39.9329 10 40.4444C10 40.956 10.1917 41.3848 10.575 41.7309C10.9583 42.077 11.4333 42.25 12 42.25ZM24 11.5556C24.5667 11.5556 25.0417 11.3825 25.425 11.0365C25.8083 10.6904 26 10.2616 26 9.75C26 9.23843 25.8083 8.80961 25.425 8.46355C25.0417 8.11748 24.5667 7.94445 24 7.94445C23.4333 7.94445 22.9583 8.11748 22.575 8.46355C22.1917 8.80961 22 9.23843 22 9.75C22 10.2616 22.1917 10.6904 22.575 11.0365C22.9583 11.3825 23.4333 11.5556 24 11.5556ZM24 31.4167C25.4 31.4167 26.5833 30.9803 27.55 30.1076C28.5167 29.235 29 28.1667 29 26.9028C29 25.6389 28.5167 24.5706 27.55 23.6979C26.5833 22.8252 25.4 22.3889 24 22.3889C22.6 22.3889 21.4167 22.8252 20.45 23.6979C19.4833 24.5706 19 25.6389 19 26.9028C19 28.1667 19.4833 29.235 20.45 30.1076C21.4167 30.9803 22.6 31.4167 24 31.4167ZM36 42.25C36.5667 42.25 37.0417 42.077 37.425 41.7309C37.8083 41.3848 38 40.956 38 40.4444C38 39.9329 37.8083 39.5041 37.425 39.158C37.0417 38.8119 36.5667 38.6389 36 38.6389C35.4333 38.6389 34.9583 38.8119 34.575 39.158C34.1917 39.5041 34 39.9329 34 40.4444C34 40.956 34.1917 41.3848 34.575 41.7309C34.9583 42.077 35.4333 42.25 36 42.25ZM42 23.2917C42.5667 23.2917 43.0417 23.1186 43.425 22.7726C43.8083 22.4265 44 21.9977 44 21.4861C44 20.9745 43.8083 20.5457 43.425 20.1997C43.0417 19.8536 42.5667 19.6806 42 19.6806C41.4333 19.6806 40.9583 19.8536 40.575 20.1997C40.1917 20.5457 40 20.9745 40 21.4861C40 21.9977 40.1917 22.4265 40.575 22.7726C40.9583 23.1186 41.4333 23.2917 42 23.2917Z" fill="#135BEC"/>
</svg>
